<svg id="Layer_1" data-name="Layer 1" xmlns="http://www.w3.org/2000/svg" viewBox="0 0 226.5 226.5"><defs><style>.cls-1{fill:#634193;stroke:#634193;stroke-width:0.7px;}.cls-1,.cls-2{stroke-miterlimit:10;}.cls-2,.cls-3{fill:none;stroke:#fff;stroke-linecap:round;}.cls-2{stroke-width:7px;}.cls-3{stroke-linejoin:round;stroke-width:3.62px;}</style></defs><circle class="cls-1" cx="113.25" cy="113.25" r="112.9"/><line class="cls-2" x1="40.68" y1="134" x2="169.59" y2="134"/><path class="cls-3" d="M41.27,132.53a33.56,33.56,0,0,1-5.62-18.46c.07-14.33,10.08-23.3,12.41-25.4,10.43-9.41,22.74-9.83,27.21-10A50.46,50.46,0,0,1,93.5,81.62C127,92.5,142.11,98.55,172.39,110.67c5.33,2.13,15.41,6.14,17.87,14.62a14.27,14.27,0,0,1-.88,10.34c-.41.77-4.11,7.57-10.34,6.79-4.11-.51-7.63-4.11-8.42-8.86"/><circle class="cls-3" cx="58.06" cy="112.25" r="9.15"/></svg>